# Blender v2.57 (sub 1) OBJ File: 'war_fence_metal.blend'
# www.blender.org
o Cube
v 1.561162 0.430222 3.635002
v 1.179342 -1.129022 4.827886
v -0.413430 -1.593439 3.711019
v -0.031610 -0.034195 2.518135
v 0.413431 1.593439 4.788101
v 0.031610 0.034195 5.980984
v -1.561163 -0.430222 4.864117
v -1.179342 1.129022 3.671233
v 5.416538 3.052235 8.296327
v 5.034717 1.492990 9.489210
v 6.182449 0.329773 8.336112
v 6.564270 1.889017 7.143228
v -4.430492 2.477823 7.746862
v -4.048672 4.037066 6.553979
v -2.837720 2.942240 8.863729
v -2.455899 4.501484 7.670846
v -0.922942 -3.863915 8.963194
v -2.515714 -4.328331 7.846326
v -1.367982 -5.491549 6.693228
v 0.224791 -5.027132 7.810095
v -1.462135 -5.895022 7.353418
v -0.187917 -5.523489 8.246912
v -1.106103 -4.592915 9.169391
v -2.380321 -4.964448 8.275897
v 1.367981 5.491549 1.805892
v -0.224792 5.027132 0.689024
v 0.922941 3.863915 -0.464074
v 2.515713 4.328332 0.652792
v -5.543094 -1.591265 2.071948
v -5.161273 -0.032021 0.879065
v -4.013541 -1.195239 -0.274034
v -4.395361 -2.754483 0.918850
v 2.455900 -4.501484 0.828273
v 2.837720 -2.942240 -0.364611
v 4.048672 -4.037066 1.945140
v 4.430492 -2.477823 0.752256
v -4.013541 -1.195239 -0.274034
v -4.395361 -2.754483 0.918850
v -5.543094 -1.591265 2.071948
v -5.161273 -0.032021 0.879065
v 6.699400 0.775083 8.748331
v 7.004856 2.022478 7.794024
v 6.086672 2.953052 8.716503
v 5.781215 1.705657 9.670810
v -3.280204 3.377448 8.955647
v -2.974748 4.624843 8.001339
v -4.248966 4.253309 7.107845
v -4.554422 3.005914 8.062153
v 4.286918 -4.291773 1.353144
v 4.592374 -3.044378 0.398837
v 3.318156 -3.415912 -0.494657
v 3.012699 -4.663307 0.459651
v 1.129007 4.686450 -0.741829
v 2.403224 5.057984 0.151664
v 1.485039 5.988558 1.074143
v 0.210820 5.617024 0.180650
v -5.839162 -1.682588 1.522490
v -5.533706 -0.435193 0.568183
v -4.615520 -1.365767 -0.354295
v -4.920976 -2.613162 0.600012
vt 0.114891 0.000000
vt 0.227609 0.000346
vt 0.226523 0.354409
vt 0.113804 0.354063
vt 0.455218 0.000346
vt 0.342499 0.000000
vt 0.341413 0.354063
vt 0.454132 0.354409
vt 0.340327 0.396378
vt 0.227609 0.396032
vt 0.228695 0.041969
vt 0.341413 0.042315
vt 0.113804 0.396032
vt 0.001086 0.396378
vt 0.000000 0.042315
vt 0.112718 0.041969
vt 0.568801 0.972928
vt 0.681519 0.973274
vt 0.682383 0.691478
vt 0.569665 0.691133
vt 0.455218 0.972928
vt 0.567936 0.973274
vt 0.568800 0.691479
vt 0.456082 0.691133
vt 0.683248 0.647200
vt 0.795966 0.647545
vt 0.795102 0.929341
vt 0.682383 0.928995
vt 0.796830 0.647200
vt 0.909549 0.647545
vt 0.908684 0.929341
vt 0.795966 0.928995
vt 0.454132 0.719418
vt 0.341413 0.719073
vt 0.342278 0.437277
vt 0.454996 0.437623
vt 0.000222 0.719073
vt 0.112940 0.719418
vt 0.113804 0.437623
vt 0.001086 0.437277
vt 0.228473 0.396378
vt 0.341192 0.396724
vt 0.340327 0.678520
vt 0.227609 0.678174
vt 0.113804 0.396724
vt 0.226523 0.396378
vt 0.227387 0.678174
vt 0.114669 0.678520
vt 0.216241 0.719142
vt 0.126066 0.719418
vt 0.328930 0.719418
vt 0.238755 0.719142
vt 0.102658 0.396655
vt 0.012484 0.396378
vt 0.353675 0.396378
vt 0.443850 0.396655
vt 0.999723 0.737651
vt 1.000000 0.647476
vt 0.909825 0.647200
vt 0.909549 0.737374
vt 0.456082 0.329802
vt 0.568800 0.330148
vt 0.567936 0.611943
vt 0.455218 0.611598
vt 0.569665 0.659604
vt 0.682383 0.659258
vt 0.681519 0.377462
vt 0.568801 0.377808
vt 0.567936 0.000000
vt 0.568801 0.281796
vt 0.456082 0.282142
vt 0.682383 0.329456
vt 0.569665 0.329802
vt 0.568801 0.048006
vt 0.681519 0.047660
vt 0.226523 1.001560
vt 0.113804 1.001214
vt 0.114669 0.719418
vt 0.227387 0.719764
vt 0.001086 0.719418
vt 0.113804 0.719764
vt 0.112940 1.001560
vt 0.000222 1.001214
vt 0.341413 1.001214
vt 0.454132 1.001560
vt 0.454996 0.719764
vt 0.342278 0.719418
vt 0.340105 0.719418
vt 0.340970 1.001214
vt 0.228252 1.001560
vt 0.909549 0.330148
vt 0.796830 0.329802
vt 0.795966 0.611598
vt 0.908684 0.611943
vt 0.795966 0.330148
vt 0.683248 0.329802
vt 0.682383 0.611598
vt 0.795102 0.611943
vt 0.795102 0.329802
vt 0.683248 0.047660
vt 0.795966 0.048006
vt 0.908684 0.329802
vt 0.795966 0.329456
vt 0.796830 0.047660
vt 0.909549 0.048006
vt 0.000000 0.000000
vt 0.011143 0.000277
vt 0.101318 0.000000
vt 0.240096 0.000000
vt 0.330270 0.000277
vt 0.352556 0.396102
vt 0.442731 0.396378
vt 0.215122 0.396378
vt 0.124947 0.396102
vt 1.000000 0.102579
vt 0.909825 0.102856
vt 0.909549 0.012681
vt 0.999723 0.012404
vt 0.897316 0.960870
vt 0.807141 0.960593
vt 0.783733 0.960870
vt 0.693558 0.960593
vt 0.557625 0.659881
vt 0.467451 0.659604
vt 0.671208 0.659881
vt 0.581034 0.659604
vt 0.909549 0.827825
vt 0.909825 0.737651
vt 1.000000 0.737927
vt 0.999723 0.828102
vt 0.808211 0.012404
vt 0.898385 0.012681
vt 0.694628 0.012404
vt 0.784802 0.012681
vt 0.693547 0.646923
vt 0.783722 0.647200
vt 0.807130 0.646923
vt 0.897304 0.647200
vt 0.909549 0.239627
vt 0.999723 0.239351
vt 1.000000 0.329525
vt 0.909825 0.329802
vt 0.579926 0.000277
vt 0.670101 0.000000
vt 0.557675 0.329525
vt 0.467500 0.329802
vt 0.670101 0.329802
vt 0.579926 0.330078
vt 0.556518 0.659604
vt 0.466343 0.659327
vt 1.000000 0.330079
vt 0.999723 0.420253
vt 0.909549 0.419977
vt 0.973725 0.126632
vt 0.973379 0.239351
vt 0.941637 0.227981
vt 0.941913 0.137807
vt 0.909549 0.940820
vt 0.909895 0.828102
vt 0.941637 0.839471
vt 0.941360 0.929646
vt 0.941291 0.239351
vt 0.941637 0.126632
vt 0.909825 0.137807
vt 0.909549 0.227981
vt 0.941291 0.420253
vt 0.941637 0.532972
vt 0.909825 0.521797
vt 0.909549 0.431622
vt 1.000000 0.557025
vt 0.909825 0.556748
vt 0.909549 0.646923
vt 0.999723 0.647200
vn -0.573866 0.581609 0.576549
vn -0.190910 -0.779622 0.596442
vn 0.190910 0.779622 -0.596442
vn 0.573866 -0.581609 -0.576549
vn -0.796386 -0.232209 -0.558434
vn 0.796386 0.232208 0.558434
vn 0.796386 0.232209 0.558434
vn 0.502588 -0.767718 -0.397511
vn 0.717123 0.016896 0.696742
vn -0.818492 -0.430856 -0.380046
vn -0.603957 0.353757 0.714207
vn 0.796386 0.232208 0.558433
vn 0.796386 0.232209 0.558433
vn 0.000000 0.000000 0.000000
vn 0.760664 -0.501551 -0.412113
vn 0.390795 0.813165 -0.431326
vn 0.022021 -0.692798 0.720796
vn -0.347849 0.621918 0.701583
vn 0.796387 0.232208 0.558433
vn 0.556997 0.414286 0.719807
vn -0.013210 0.929812 -0.367797
vn -0.372789 -0.538606 0.755600
vn -0.942996 -0.023079 -0.332003
vn 0.933232 0.044241 0.356539
vn 0.356462 0.565701 -0.743584
vn -0.007257 -0.919618 0.392746
vn -0.584027 -0.398158 -0.707377
vn 0.602390 -0.386708 -0.698272
vn 0.818945 0.405293 0.406284
vn -0.731128 -0.046674 -0.680642
vn -0.514573 0.745326 0.423914
vn -0.807087 0.470516 0.356687
vn -0.086314 0.657136 -0.748814
vn -0.446166 -0.812395 0.375435
vn 0.274608 -0.625775 -0.730066
usemtl Material
s off
f 5/1/1 6/2/1 10/3/1
f 5/1/1 10/3/1 9/4/1
f 6/5/2 2/6/2 11/7/2
f 6/5/2 11/7/2 10/8/2
f 1/9/3 5/10/3 9/11/3
f 1/9/3 9/11/3 12/12/3
f 2/13/4 1/14/4 12/15/4
f 2/13/4 12/15/4 11/16/4
f 8/17/5 7/18/5 13/19/5
f 8/17/5 13/19/5 14/20/5
f 7/21/2 6/22/2 15/23/2
f 7/21/2 15/23/2 13/24/2
f 5/25/3 8/26/3 14/27/3
f 5/25/3 14/27/3 16/28/3
f 6/29/6 5/30/6 16/31/6
f 6/29/6 16/31/6 15/32/6
f 6/33/1 7/34/1 18/35/1
f 6/33/1 18/35/1 17/36/1
f 7/37/5 3/38/5 19/39/5
f 7/37/5 19/39/5 18/40/5
f 2/41/7 6/42/7 17/43/7
f 2/41/7 17/43/7 20/44/7
f 3/45/4 2/46/4 20/47/4
f 3/45/4 20/47/4 19/48/4
f 19/48/8 20/47/8 22/49/8
f 19/48/8 22/49/8 21/50/8
f 20/44/9 17/43/9 23/51/9
f 20/44/9 23/51/9 22/52/9
f 18/40/10 19/39/10 21/53/10
f 18/40/10 21/53/10 24/54/10
f 17/36/11 18/35/11 24/55/11
f 17/36/11 24/55/11 23/56/11
f 22/57/2 23/58/2 24/59/2
f 22/57/2 24/59/2 21/60/2
f 8/61/1 5/62/1 25/63/1
f 8/61/1 25/63/1 26/64/1
f 4/65/5 8/66/5 26/67/5
f 4/65/5 26/67/5 27/68/5
f 5/5/12 1/69/12 28/70/12
f 5/5/12 28/70/12 25/71/12
f 1/72/4 4/73/4 27/74/4
f 1/72/4 27/74/4 28/75/4
f 7/76/1 8/77/1 30/78/1
f 7/76/1 30/78/1 29/79/1
f 8/80/3 4/81/3 31/82/3
f 8/80/3 31/82/3 30/83/3
f 3/84/2 7/85/2 29/86/2
f 3/84/2 29/86/2 32/87/2
f 4/79/4 3/88/4 32/89/4
f 4/79/4 32/89/4 31/90/4
f 3/91/5 4/92/5 34/93/5
f 3/91/5 34/93/5 33/94/5
f 2/95/2 3/96/2 33/97/2
f 2/95/2 33/97/2 35/98/2
f 4/99/3 1/72/3 36/100/3
f 4/99/3 36/100/3 34/101/3
f 1/102/13 2/103/13 35/104/13
f 1/102/13 35/104/13 36/105/13
f 31/106/14 32/106/14 38/106/14
f 31/106/14 38/106/14 37/106/14
f 32/106/14 29/106/14 39/106/14
f 32/106/14 39/106/14 38/106/14
f 30/106/14 31/106/14 37/106/14
f 30/106/14 37/106/14 40/106/14
f 29/106/14 30/106/14 40/106/14
f 29/106/14 40/106/14 39/106/14
f 11/16/15 12/15/15 42/107/15
f 11/16/15 42/107/15 41/108/15
f 12/12/16 9/11/16 43/109/16
f 12/12/16 43/109/16 42/110/16
f 10/8/17 11/7/17 41/111/17
f 10/8/17 41/111/17 44/112/17
f 9/4/18 10/3/18 44/113/18
f 9/4/18 44/113/18 43/114/18
f 42/115/19 43/116/19 44/117/19
f 42/115/19 44/117/19 41/118/19
f 15/32/20 16/31/20 46/119/20
f 15/32/20 46/119/20 45/120/20
f 16/28/21 14/27/21 47/121/21
f 16/28/21 47/121/21 46/122/21
f 13/24/22 15/23/22 45/123/22
f 13/24/22 45/123/22 48/124/22
f 14/20/23 13/19/23 48/125/23
f 14/20/23 48/125/23 47/126/23
f 46/127/1 47/128/1 48/129/1
f 46/127/1 48/129/1 45/130/1
f 36/105/24 35/104/24 49/131/24
f 36/105/24 49/131/24 50/132/24
f 34/101/25 36/100/25 50/133/25
f 34/101/25 50/133/25 51/134/25
f 35/98/26 33/97/26 52/135/26
f 35/98/26 52/135/26 49/136/26
f 33/94/27 34/93/27 51/137/27
f 33/94/27 51/137/27 52/138/27
f 50/139/4 49/140/4 52/141/4
f 50/139/4 52/141/4 51/142/4
f 28/75/28 27/74/28 53/143/28
f 28/75/28 53/143/28 54/144/28
f 25/71/29 28/70/29 54/145/29
f 25/71/29 54/145/29 55/146/29
f 27/68/30 26/67/30 56/147/30
f 27/68/30 56/147/30 53/148/30
f 26/64/31 25/63/31 55/149/31
f 26/64/31 55/149/31 56/150/31
f 55/142/3 54/151/3 53/152/3
f 55/142/3 53/152/3 56/153/3
f 39/154/32 40/155/32 58/156/32
f 39/154/32 58/156/32 57/157/32
f 40/158/33 37/159/33 59/160/33
f 40/158/33 59/160/33 58/161/33
f 38/162/34 39/163/34 57/164/34
f 38/162/34 57/164/34 60/165/34
f 37/166/35 38/167/35 60/168/35
f 37/166/35 60/168/35 59/169/35
f 60/170/5 57/171/5 58/172/5
f 60/170/5 58/172/5 59/173/5
