<?xml version="1.0" encoding="utf-8"?>
<!-- Generator: Adobe Illustrator 15.0.0, SVG Export Plug-In . SVG Version: 6.00 Build 0)  -->
<!DOCTYPE svg PUBLIC "-//W3C//DTD SVG 1.1//EN" "http://www.w3.org/Graphics/SVG/1.1/DTD/svg11.dtd">
<svg version="1.1" id="Layer_1" xmlns="http://www.w3.org/2000/svg" xmlns:xlink="http://www.w3.org/1999/xlink" x="0px" y="0px"
	 width="1280px" height="768px" viewBox="0 0 1280 768" enable-background="new 0 0 1280 768" xml:space="preserve">
<path d="M681,0v142.676c93.027,0.042,168.465,75.497,168.455,168.528c0,43.347-16.374,82.891-43.241,112.737
	c0,0-0.041,0.032-0.134,0.129c-2.841,3.201-5.817,6.209-8.892,9.152c-0.041,0.035-7.445,8.891-11.736,15.063
	c-10.682,15.266-12.399,31.477-12.399,31.477S765,523.309,751,539.385V558h-70v8.417l70-8.159v16.334l-70,8.163v16.326l70-8.147
	v16.311l-70,8.153v16.326l70-8.157v16.33l-70,8.161V656h70.288c0,0-35.133,16.546-70.288,16.571V768h599V0H681z"/>
<polygon points="611,574.592 611,590.934 681,582.755 681,566.417 "/>
<polygon points="611,607.244 611,623.566 681,615.397 681,599.081 "/>
<polygon points="681,631.724 611,639.896 611,656.234 681,648.058 "/>
<path d="M610.577,656c0,0,35.176,17,70.341,17c0.027,0,0.055,0,0.082,0v-17H610.577z"/>
<rect x="252.263" y="544.106" fill="none" width="507.895" height="306.579"/>
<text transform="matrix(1 0 0 1 252.2627 596.3057)" font-family="'Ethnocentric'" font-size="72">LIGHTS</text>
<rect x="760.157" y="532.551" fill="none" width="334.211" height="123.684"/>
<text transform="matrix(1 0 0 1 760.1572 613.0986)" fill="#FFFFFF" font-family="'HandMeDownS-BRK-'" font-size="150">OUT</text>
<g id="XMLID_1_">
	<g>
		<rect x="271.368" y="300.686" width="234.842" height="32.499"/>
	</g>
	<g>
		<rect x="271.368" y="300.686" fill="none" stroke="#000000" stroke-miterlimit="10" width="234.842" height="32.499"/>
	</g>
</g>
<g id="XMLID_2_">
	<g>
		<rect x="384.84" y="103.527" transform="matrix(0.3123 -0.95 0.95 0.3123 65.9473 532.9904)" width="32.499" height="234.842"/>
	</g>
	<g>
		
			<rect x="283.668" y="204.699" transform="matrix(0.95 0.3122 -0.3122 0.95 89.0443 -114.1916)" fill="none" stroke="#000000" stroke-miterlimit="10" width="234.842" height="32.499"/>
	</g>
</g>
<g id="XMLID_3_">
	<g>
		<rect x="433.876" y="12.827" transform="matrix(0.642 -0.7667 0.7667 0.642 61.2939 391.7585)" width="32.499" height="234.843"/>
	</g>
	<g>
		
			<rect x="332.704" y="113.999" transform="matrix(0.7667 0.642 -0.642 0.7667 188.6171 -258.5846)" fill="none" stroke="#000000" stroke-miterlimit="10" width="234.843" height="32.499"/>
	</g>
</g>
<g id="XMLID_4_">
	<g>
		
			<rect x="394.674" y="307.361" transform="matrix(-0.4084 -0.9128 0.9128 -0.4084 190.9834 973.3477)" width="32.499" height="234.842"/>
	</g>
	<g>
		
			<rect x="293.503" y="408.533" transform="matrix(0.9128 -0.4084 0.4084 0.9128 -137.6414 204.8402)" fill="none" stroke="#000000" stroke-miterlimit="10" width="234.842" height="32.498"/>
	</g>
</g>
<g>
	<polygon points="636.306,225.968 627.805,207.325 620.985,209.271 619.492,219.526 615.662,228.174 625.345,232.14 	"/>
	<path d="M645.466,206.85l5.117,11.631l-26.17,22.536l-13.834,10.906l7.994,17.456l-28.347,34.91l16.731,45.09
		c0,0,40.72,3.62,42.901,5.081c2.179,1.455,5.812,49.441,5.09,51.626c-0.742,2.187,15.25,46.538,15.25,46.538L681,450.012V277.797
		l-5.308-0.884l-24.027-3.145l-3.985-7.78l-23.261,1.929l20.13-17.601L662,262.584v4.853l8.082-6.795l-3.032-10.166l12.571,14.267
		l1.379,0.081V215.27l-25.746,6.093l9.198-9.659l2.399-9.666l12.098-7.257L681,209.287v-26.943l-7.156-1.685L645.466,206.85z"/>
	<polygon points="658.583,162 665.118,172.792 681,161.853 681,162 	"/>
	<path d="M518.098,353.346c-3.39-13.299-5.374-27.159-5.374-41.513c0-39.051,13.397-74.915,35.663-103.504l6.212,1.418l7.994-10.907
		l36.358-10.833L620.028,159h-9.544c21.462-10,45.271-15.908,70.517-15.992V143c-0.025,0-0.052,0-0.077,0
		c-93.063,0-168.543,75.31-168.543,168.371c0,35.55,11.015,68.491,29.784,95.638l10.236-25.65L518.098,353.346z"/>
	<path d="M576.288,448.306c11.086,15.885,12.565,31.466,12.565,31.466S597,523.309,611,539.385V558h70v-77.342
		c-46.808-0.152-89.105-19.363-119.586-50.269C566.274,435.87,573.136,443.777,576.288,448.306z"/>
	<polygon points="607.687,192.306 596.039,198.84 610.584,200.302 	"/>
	<path d="M835.271,303.55l-22.553,18.915l-4.327,23.271l-20.386-40.721l-26.168-6.549l-5.073,15.268l-29.085,18.193l18.165,5.082
		l-27.623,42.182l-1.468,30.529l-22.54,37.098L681,450.012v30.646c0.188,0.001,0.372,0.009,0.56,0.009
		c86.879,0,158.355-65.673,167.716-150.057L835.271,303.55z"/>
	<path d="M555.933,424.376c-4.957-5.472-9.556-11.275-13.769-17.367l-0.007,0.018c5.718,8.358,12.168,16.177,19.257,23.363
		c-2.346-2.646-4.228-4.729-4.996-5.589C556.252,424.641,556.075,424.49,555.933,424.376z"/>
	<path d="M681.14,162l-0.14-0.147v20.491l17.585,4.141l74.746-16.222C746.909,153.079,715.418,143,681.56,143
		c-0.188,0-0.372,0.007-0.56,0.008V162H681.14z"/>
	<polygon points="702.723,281.417 708.281,266.394 681,264.824 681,277.797 	"/>
	<polygon points="681.818,215.076 681,209.287 681,215.27 	"/>
	<polygon points="690.946,253.721 715.031,255.676 718.867,249.899 696.447,239.094 	"/>
</g>
</svg>
