# Blender v2.57 (sub 1) OBJ File: 'crate.blend'
# www.blender.org
o crate
v 1.866101 -1.866101 3.741885
v -1.866101 -1.866101 3.741885
v 1.866101 1.866101 3.741885
v 1.866101 -1.866101 0.009682
v 1.866101 1.866101 0.009682
v -1.866101 1.866101 3.741885
v -1.866101 1.866101 0.009682
v -1.866101 -1.866101 0.009682
vt 0.486454 0.472824
vt 0.012928 0.472824
vt 0.012928 0.024120
vt 0.486454 0.024120
vt 0.982575 0.471729
vt 0.514452 0.471729
vt 0.514452 0.028143
vt 0.982575 0.028143
vt 0.511016 0.501041
vt 0.978950 0.501041
vt 0.978950 0.968976
vt 0.511016 0.968976
vt 0.486642 0.970819
vt 0.014121 0.970819
vt 0.014121 0.498298
vt 0.486642 0.498298
vn 0.000000 -1.000000 0.000000
vn 1.000000 0.000000 0.000000
vn 0.000000 1.000000 0.000000
vn -1.000000 0.000000 0.000000
vn 0.000000 0.000000 -1.000000
vn 0.000000 0.000000 1.000000
usemtl crate_crate01.jpg
s off
f 1/1/1 2/2/1 8/3/1
f 4/4/1 1/1/1 8/3/1
f 3/5/2 1/6/2 4/7/2
f 5/8/2 3/5/2 4/7/2
f 7/4/3 6/1/3 5/3/3
f 2/5/4 6/6/4 7/7/4
f 8/8/4 2/5/4 7/7/4
f 4/9/5 8/10/5 7/11/5
f 5/12/5 4/9/5 7/11/5
usemtl crate_crate_china.png
f 6/1/3 3/2/3 5/3/3
f 3/13/6 6/14/6 2/15/6
f 1/16/6 3/13/6 2/15/6
