# Blender v2.63 (sub 11) OBJ File: 'generic_pickup.blend'
# www.blender.org
mtllib generic_pickup.mtl
o Cube_Cube.001
v -0.447528 0.350081 -0.957509
v -0.447528 1.000000 -1.000000
v 0.399487 1.000000 -1.000000
v 0.399487 0.350080 -0.957509
v -0.447529 -0.999999 0.916295
v -0.447527 1.000001 1.000000
v 0.399487 1.000000 1.000000
v 0.399487 -1.000000 0.916295
v -0.447528 1.000000 0.758384
v -0.447528 -1.124267 0.420832
v 0.399487 1.000000 0.758384
v 0.399487 -1.124268 0.420832
v -0.447528 1.000000 -0.457938
v -0.447528 -0.230317 0.244782
v 0.399487 1.000000 -0.457938
v 0.399487 -0.230317 0.244782
vt 0.197122 0.495385
vt 0.197971 0.772166
vt 0.000849 0.772770
vt 0.000000 0.495989
vt 0.267297 0.831574
vt 0.268328 0.495385
vt 0.465450 0.495989
vt 0.464419 0.832179
vt 0.126151 0.000387
vt 0.409220 0.001255
vt 0.296942 0.160715
vt 0.329146 0.495385
vt 0.000000 0.000000
vt 0.018279 0.151310
vt 0.466491 0.835288
vt 0.465622 0.552220
vt 0.663612 0.834683
vt 0.662744 0.551615
vt 0.466878 0.961439
vt 0.663999 0.960835
vt 0.633958 0.160715
vt 0.601753 0.495385
vt 0.521680 0.001255
vt 0.804748 0.000387
vt 0.912621 0.151310
vt 0.930900 0.000000
vt 0.862549 0.495804
vt 0.999395 0.495384
vt 1.000000 0.692506
vt 0.863154 0.692926
vt 0.465450 0.001428
vt 0.464022 0.466878
vt 0.662571 0.495384
vt 0.466878 0.466878
vt 0.665427 0.495384
vt 0.862549 0.495989
vt 0.861121 0.961439
vt 0.044968 0.773238
vt 0.197366 0.772770
vt 0.045572 0.970360
vt 0.197971 0.969892
vn -0.000000 -0.900557 -0.434738
vn -0.000001 -0.900557 -0.434738
vn -0.000000 -0.193224 -0.981155
vn 1.000000 -0.000000 -0.000000
vn 1.000000 -0.000000 -0.000001
vn 1.000000 -0.000001 -0.000000
vn 0.000000 1.000000 -0.000000
vn 0.000001 1.000000 -0.000000
vn -1.000000 0.000000 0.000000
vn -0.000001 -0.969957 0.243277
vn 0.000001 1.000000 -0.000001
vn -1.000000 0.000001 -0.000001
vn -1.000000 0.000000 0.000001
vn -0.000000 -0.041816 0.999125
vn -0.000000 -0.065239 -0.997870
usemtl Material_machinegun.png
s off
f 14/1/1 1/2/1 4/3/1
f 14/1/2 4/3/2 16/4/2
f 10/5/3 14/6/3 16/7/3
f 10/5/3 16/7/3 12/8/3
f 15/9/4 11/10/4 16/11/4
f 11/10/5 12/12/5 16/11/5
f 3/13/6 15/9/6 4/14/6
f 15/9/6 16/11/6 4/14/6
f 13/15/7 9/16/7 15/17/7
f 9/16/8 11/18/8 15/17/8
f 2/19/7 13/15/7 3/20/7
f 13/15/7 15/17/7 3/20/7
f 14/21/9 10/22/9 9/23/9
f 14/21/9 9/23/9 13/24/9
f 1/25/9 14/21/9 13/24/9
f 1/25/9 13/24/9 2/26/9
f 5/27/10 10/28/10 12/29/10
f 5/27/10 12/29/10 8/30/10
f 11/10/4 7/31/4 12/12/4
f 7/31/4 8/32/4 12/12/4
f 9/16/11 6/7/11 11/18/11
f 6/7/8 7/33/8 11/18/8
f 10/22/12 5/34/12 6/31/12
f 10/22/13 6/31/13 9/23/13
f 5/35/14 8/36/14 7/37/14
f 5/35/14 7/37/14 6/20/14
f 1/38/15 2/39/15 4/40/15
f 2/39/15 3/41/15 4/40/15
