v 30.0000 -30.0000 -30.0000
v 30.0000 -30.0000 30.0000
v -30.0000 -30.0000 30.0000
v -30.0000 -30.0000 -30.0000
v 30.0000 30.0000 -30.0000
v 30.0000 30.0000 30.00000
v -30.0000 30.0000 30.0000
v -30.0000 30.0000 -30.0000

vt 0.000000 0.000000
vt 1.0000 0.000000
vt 1.0000 1.0000
vt 0.000000 1.0000

vn 0.000000 0.000000 -30.0000
vn -30.0000 -0.000000 -0.000000
vn -0.000000 -0.000000 30.0000
vn -0.000001 0.000000 30.0000
vn 30.0000 -0.000000 0.000000
vn 30.0000 0.000000 0.000000
vn 0.000000 30.0000 -0.000000
vn -0.000000 -30.0000 0.000000

f 5/1/1 1/2/1 4/3/1
f 5/1/1 4/3/1 8/4/1
f 3/1/2 7/2/2 8/3/2
f 3/1/2 8/3/2 4/4/2
f 2/1/3 6/2/3 3/4/3
f 6/2/4 7/3/4 3/4/4
f 1/1/5 5/2/5 2/4/5
f 5/2/6 6/3/6 2/4/6
f 5/1/7 8/2/7 6/4/7
f 8/2/7 7/3/7 6/4/7
f 1/1/8 2/2/8 3/3/8
f 1/1/8 3/3/8 4/4/8
