# Blender v2.57 (sub 1) OBJ File: ''
# www.blender.org
o Mesh_cube
v 30.000000 -29.999998 60.000000
v 30.000000 -30.000000 0.000001
v -30.000000 -30.000000 0.000001
v -30.000000 -29.999998 60.000000
v -30.000000 30.000000 -0.000001
v -30.000000 30.000002 60.000000
v 30.000000 30.000000 -0.000001
v 30.000000 30.000002 60.000000
vt 0.000000 0.000000
vt 1.000000 1.000000
vt 1.000000 0.000000
vt 0.000000 1.000000
vn 0.000000 -1.000000 0.000000
vn -1.000000 -0.000000 -0.000000
vn 0.000000 1.000000 -0.000000
vn 1.000000 -0.000000 0.000000
vn -0.000000 0.000000 1.000000
vn -0.000000 -0.000000 -1.000000
usemtl (null)
s off
f 1/1/1 3/2/1 2/3/1
f 1/1/1 4/4/1 3/2/1
f 5/1/2 4/2/2 6/3/2
f 5/1/2 3/4/2 4/2/2
f 7/1/3 5/4/3 8/3/3
f 8/3/3 5/4/3 6/2/3
f 7/4/4 1/3/4 2/1/4
f 1/3/4 7/4/4 8/2/4
f 1/1/5 8/4/5 4/3/5
f 4/3/5 8/4/5 6/2/5
f 2/1/6 5/2/6 7/3/6
f 2/1/6 3/4/6 5/2/6
