# Blender v2.61 (sub 0) OBJ File: 'table.blend'
# www.blender.org
mtllib table.mtl
o Cube
v -0.192936 -0.500000 0.872216
v -0.192936 0.500000 0.872216
v 1.507824 0.500000 0.872216
v 1.507823 -0.500000 0.872216
v -0.192937 -0.499999 0.628371
v -0.192936 0.500000 0.628371
v 1.507824 0.500000 0.628371
v 1.505393 -0.500000 0.628371
v -0.334274 -0.499999 0.628371
v -0.334273 0.500000 0.628371
v -0.334274 0.500000 0.872216
v -0.334274 -0.500000 0.872216
v 1.665726 0.500000 0.628371
v 1.665726 -0.500000 0.628371
v 1.665726 -0.500000 0.872216
v 1.665726 0.500000 0.872216
v -0.192936 -0.346416 0.872216
v 1.507823 -0.346416 0.872216
v -0.192937 -0.346415 0.628371
v 1.505767 -0.346416 0.628371
v -0.334274 -0.346415 0.628371
v -0.334274 -0.346416 0.872216
v 1.665726 -0.346416 0.628371
v 1.665726 -0.346416 0.872216
v -0.192936 0.340771 0.872216
v 1.507824 0.340771 0.872216
v -0.192936 0.343441 0.628371
v 1.507209 0.343441 0.628371
v -0.334273 0.343441 0.628371
v -0.334274 0.340771 0.872216
v 1.665726 0.343441 0.628371
v 1.665726 0.340771 0.872216
v 1.665726 -0.346416 -0.103812
v 1.505767 -0.346416 -0.103812
v 1.665726 -0.500000 -0.123120
v 1.505393 -0.500000 -0.123120
v -0.192937 -0.346415 -0.127784
v -0.334274 -0.346415 -0.126703
v -0.334274 -0.494326 -0.120506
v -0.192937 -0.499999 -0.118233
v -0.334273 0.343441 -0.105689
v -0.192936 0.343441 -0.104808
v -0.334273 0.500000 -0.124864
v -0.192936 0.500000 -0.124864
v 1.507209 0.343441 -0.123577
v 1.665726 0.343441 -0.123577
v 1.665726 0.500000 -0.119715
v 1.507824 0.500000 -0.119715
vt 0.279583 0.935313
vt 0.282884 0.977463
vt 0.095985 0.976735
vt 0.099552 0.935170
vt 0.278523 0.770129
vt 0.276406 0.820619
vt 0.097236 0.820679
vt 0.092965 0.770122
vt 0.297123 0.934286
vt 0.299423 0.976856
vt 0.294917 0.770169
vt 0.293841 0.820813
vt 0.077796 0.821708
vt 0.074297 0.770833
vt 0.077748 0.976634
vt 0.080124 0.935004
vt 0.276713 0.840078
vt 0.097920 0.840080
vt 0.436416 0.971384
vt 0.434793 0.931844
vt 0.736753 0.931844
vt 0.738309 0.971384
vt 0.294507 0.838960
vt 0.339307 0.819169
vt 0.339929 0.836980
vt 0.078023 0.839833
vt 0.025364 0.839820
vt 0.025063 0.822033
vt 0.279032 0.915456
vt 0.099288 0.915215
vt 0.434537 0.819410
vt 0.736753 0.819410
vt 0.432908 0.779822
vt 0.735234 0.779822
vt 0.761877 0.819410
vt 0.761877 0.931844
vt 0.296697 0.915429
vt 0.342114 0.915956
vt 0.342529 0.934094
vt 0.406359 0.931844
vt 0.406359 0.819410
vt 0.079486 0.916330
vt 0.027884 0.936805
vt 0.027346 0.918751
vt 0.304372 0.051352
vt 0.364083 0.055835
vt 0.361659 0.514840
vt 0.301948 0.510357
vt 0.244356 0.054306
vt 0.241932 0.513311
vt 0.424099 0.052881
vt 0.421674 0.511886
vt 0.484139 0.050121
vt 0.481715 0.509126
vt 0.424238 0.564612
vt 0.484139 0.561858
vt 0.174614 0.067634
vt 0.228784 0.071695
vt 0.228784 0.488387
vt 0.174615 0.484327
vt 0.013048 0.069414
vt 0.067032 0.066479
vt 0.067016 0.479469
vt 0.012697 0.488755
vt 0.120974 0.063621
vt 0.120824 0.476215
vt 0.170394 0.539654
vt 0.224831 0.541125
vt 0.802443 0.036633
vt 0.861580 0.033375
vt 0.861396 0.485835
vt 0.802259 0.489636
vt 0.743233 0.039877
vt 0.742534 0.501417
vt 0.920352 0.038020
vt 0.920352 0.494300
vt 0.979606 0.042761
vt 0.979606 0.499041
vt 0.915405 0.555941
vt 0.974696 0.560397
vt 0.615763 0.049793
vt 0.675720 0.046654
vt 0.675720 0.505214
vt 0.615763 0.508353
vt 0.735659 0.043375
vt 0.735659 0.501935
vt 0.555824 0.053072
vt 0.555824 0.511632
vt 0.496179 0.048766
vt 0.496179 0.507325
vt 0.552142 0.565871
vt 0.492264 0.561548
vn -0.000000 -1.000000 -0.000000
vn 0.000000 1.000000 0.000001
vn -0.000000 -1.000000 -0.000001
vn -0.000000 0.000000 -1.000000
vn 0.000000 -0.000000 1.000000
vn 1.000000 -0.000000 -0.000001
vn -1.000000 0.000000 -0.000000
vn 1.000000 -0.000000 -0.000000
vn 1.000000 -0.000000 0.000001
vn -1.000000 0.000000 -0.000001
vn 0.999997 -0.002431 0.000000
vn 0.000000 1.000000 0.000000
vn -0.000001 -0.124735 0.992190
vn 0.020035 0.999792 0.003793
vn -0.003166 0.052163 0.998634
vn 1.000000 -0.000001 -0.000000
vn -1.000000 0.000001 0.000000
vn -0.003091 0.124317 0.992238
vn 0.999992 -0.003925 0.000000
vn -0.000001 -0.024658 0.999696
usemtl Material_table.png
s off
f 2/1/1 6/2/1 7/3/1
f 2/1/1 7/3/1 3/4/1
f 5/5/2 1/6/2 4/7/2
f 5/5/2 4/7/2 8/8/2
f 6/2/3 2/1/3 11/9/3
f 6/2/3 11/9/3 10/10/3
f 1/6/2 5/5/2 9/11/2
f 1/6/2 9/11/2 12/12/2
f 8/8/2 4/7/2 15/13/2
f 8/8/2 15/13/2 14/14/2
f 3/4/1 7/3/1 13/15/1
f 3/4/1 13/15/1 16/16/1
f 1/6/4 17/17/4 18/18/4
f 1/6/4 18/18/4 4/7/4
f 8/19/5 20/20/5 19/21/5
f 8/19/5 19/21/5 5/22/5
f 17/17/4 1/6/4 12/12/4
f 17/17/4 12/12/4 22/23/4
f 9/24/6 21/25/6 22/23/6
f 9/24/6 22/23/6 12/12/6
f 4/7/4 18/18/4 24/26/4
f 4/7/4 24/26/4 15/13/4
f 23/27/7 14/28/7 15/13/7
f 23/27/7 15/13/7 24/26/7
f 17/17/4 25/29/4 26/30/4
f 17/17/4 26/30/4 18/18/4
f 25/29/4 2/1/4 3/4/4
f 25/29/4 3/4/4 26/30/4
f 20/20/5 28/31/5 27/32/5
f 20/20/5 27/32/5 19/21/5
f 28/31/5 7/33/5 6/34/5
f 28/31/5 6/34/5 27/32/5
f 19/21/5 27/32/5 29/35/5
f 19/21/5 29/35/5 21/36/5
f 2/1/4 25/29/4 30/37/4
f 2/1/4 30/37/4 11/9/4
f 25/29/4 17/17/4 22/23/4
f 25/29/4 22/23/4 30/37/4
f 21/25/8 29/38/8 30/37/8
f 21/25/8 30/37/8 22/23/8
f 29/38/9 10/39/9 11/9/9
f 29/38/9 11/9/9 30/37/9
f 28/31/5 20/20/5 23/40/5
f 28/31/5 23/40/5 31/41/5
f 18/18/4 26/30/4 32/42/4
f 18/18/4 32/42/4 24/26/4
f 26/30/4 3/4/4 16/16/4
f 26/30/4 16/16/4 32/42/4
f 13/43/10 31/44/10 32/42/10
f 13/43/10 32/42/10 16/16/10
f 31/44/7 23/27/7 24/26/7
f 31/44/7 24/26/7 32/42/7
f 23/45/1 20/46/1 34/47/1
f 23/45/1 34/47/1 33/48/1
f 14/49/7 23/45/7 33/48/7
f 14/49/7 33/48/7 35/50/7
f 20/46/11 8/51/11 36/52/11
f 20/46/11 36/52/11 34/47/11
f 8/51/12 14/53/12 35/54/12
f 8/51/12 35/54/12 36/52/12
f 34/55/13 36/52/13 35/54/13
f 34/55/13 35/54/13 33/56/13
f 19/57/1 21/58/1 38/59/1
f 19/57/1 38/59/1 37/60/1
f 21/61/8 9/62/8 39/63/8
f 21/61/8 39/63/8 38/64/8
f 5/65/7 19/57/7 37/60/7
f 5/65/7 37/60/7 40/66/7
f 9/62/14 5/65/14 40/66/14
f 9/62/14 40/66/14 39/63/14
f 40/67/15 37/60/15 38/59/15
f 40/67/15 38/59/15 39/68/15
f 29/69/12 27/70/12 42/71/12
f 29/69/12 42/71/12 41/72/12
f 10/73/16 29/69/16 41/72/16
f 10/73/16 41/72/16 43/74/16
f 27/70/17 6/75/17 44/76/17
f 27/70/17 44/76/17 42/71/17
f 6/75/1 10/77/1 43/78/1
f 6/75/1 43/78/1 44/76/1
f 42/79/18 44/76/18 43/78/18
f 42/79/18 43/78/18 41/80/18
f 28/81/12 31/82/12 46/83/12
f 28/81/12 46/83/12 45/84/12
f 31/82/7 13/85/7 47/86/7
f 31/82/7 47/86/7 46/83/7
f 7/87/19 28/81/19 45/84/19
f 7/87/19 45/84/19 48/88/19
f 13/89/1 7/87/1 48/88/1
f 13/89/1 48/88/1 47/90/1
f 48/88/20 45/91/20 46/92/20
f 48/88/20 46/92/20 47/90/20
