# Blender v2.57 (sub 1) OBJ File: 'turrent_gun.blend'
# www.blender.org
o Cube.002
v 1.000000 0.972247 0.032779
v 1.000000 -1.027753 0.032779
v -1.000000 -1.027753 0.032779
v -1.000000 0.972247 0.032779
v 1.000000 0.972246 0.528638
v 0.999999 -1.027754 0.528638
v -1.000000 -1.027753 0.528638
v -1.000000 0.972247 0.528638
vt 0.333333 0.001019
vt 0.665647 0.000000
vt 0.666667 0.332314
vt 0.334353 0.333333
vt 1.000000 0.001019
vt 0.998981 0.333333
vt 0.667686 0.000000
vt 0.001019 0.000000
vt 0.333333 0.001020
vt 0.332314 0.333333
vt 0.000000 0.332314
vt 0.998981 0.666667
vt 1.000000 0.334353
vt 0.667686 0.333333
vt 0.666667 0.665647
vt 0.666667 0.334353
vt 0.333333 0.665647
vt 0.665647 0.666667
vt 0.001019 0.333334
vt 0.333333 0.334353
vt 0.332314 0.666667
vt 0.000000 0.665648
vn 0.000000 0.000000 -1.000000
vn 0.000000 -0.000000 1.000000
vn 1.000000 -0.000000 0.000000
vn -0.000000 -1.000000 -0.000001
vn -1.000000 0.000000 -0.000001
vn 0.000000 1.000000 0.000001
usemtl Material
s off
f 1/1/1 2/2/1 3/3/1
f 1/1/1 3/3/1 4/4/1
f 5/5/2 8/6/2 7/3/2
f 5/5/2 7/3/2 6/7/2
f 1/8/3 5/9/3 6/10/3
f 1/8/3 6/10/3 2/11/3
f 2/12/4 6/13/4 7/14/4
f 2/12/4 7/14/4 3/15/4
f 3/16/5 7/4/5 8/17/5
f 3/16/5 8/17/5 4/18/5
f 5/19/6 1/20/6 4/21/6
f 5/19/6 4/21/6 8/22/6
