# Blender v2.60 (sub 0) OBJ File: 'war_fence_metal.blend'
# www.blender.org
mtllib war_fence_metal.mtl
o Cube
v -0.112165 -0.029248 0.321371
v -0.084033 0.085634 0.409261
v 0.025125 0.117462 0.332718
v -0.003007 0.002580 0.244828
v -0.025125 -0.117462 0.408819
v 0.003007 -0.002580 0.496708
v 0.112165 0.029248 0.420165
v 0.084033 -0.085634 0.332276
v -0.368006 -0.217439 0.649250
v -0.339874 -0.102557 0.737139
v -0.426914 -0.014342 0.649692
v -0.455046 -0.129224 0.561803
v 0.329766 -0.191289 0.638783
v 0.301634 -0.306171 0.550894
v 0.220608 -0.223117 0.715326
v 0.192476 -0.337999 0.627437
v 0.073336 0.284625 0.716431
v 0.182495 0.316453 0.639888
v 0.095454 0.404667 0.552441
v -0.013704 0.372839 0.628984
v 0.103459 0.434382 0.600757
v 0.016132 0.408920 0.661991
v 0.085764 0.338348 0.731949
v 0.173091 0.363811 0.670715
v -0.095454 -0.404667 0.189095
v 0.013704 -0.372839 0.112552
v -0.073336 -0.284625 0.025105
v -0.182495 -0.316453 0.101648
v 0.385061 0.108818 0.228808
v 0.356930 -0.006064 0.140918
v 0.269889 0.082151 0.053471
v 0.298021 0.197033 0.141360
v -0.192476 0.337999 0.114100
v -0.220608 0.223117 0.026210
v -0.301634 0.306171 0.190642
v -0.329766 0.191289 0.102753
v 0.269889 0.082151 0.053471
v 0.298021 0.197033 0.141360
v 0.385061 0.108818 0.228808
v 0.356930 -0.006064 0.140918
v -0.461701 -0.046513 0.678171
v -0.484206 -0.138418 0.607860
v -0.414574 -0.208990 0.677818
v -0.392069 -0.117084 0.748129
v 0.253083 -0.256124 0.723370
v 0.230578 -0.348030 0.653058
v 0.317905 -0.322567 0.591824
v 0.340410 -0.230662 0.662135
v -0.320783 0.325484 0.146821
v -0.343288 0.233579 0.076509
v -0.255961 0.259041 0.015275
v -0.233456 0.350947 0.085586
v -0.087452 -0.345240 0.004315
v -0.174778 -0.370702 0.065549
v -0.105146 -0.441274 0.135507
v -0.017819 -0.415811 0.074273
v 0.404317 0.115124 0.189695
v 0.381812 0.023219 0.119384
v 0.312180 0.093790 0.049426
v 0.334685 0.185696 0.119738
vt 0.114891 0.000000
vt 0.227609 0.000346
vt 0.226523 0.354409
vt 0.113804 0.354063
vt 0.455218 0.000346
vt 0.342499 0.000000
vt 0.341413 0.354063
vt 0.454132 0.354409
vt 0.340327 0.396378
vt 0.227609 0.396032
vt 0.228695 0.041969
vt 0.341413 0.042315
vt 0.113804 0.396032
vt 0.001086 0.396378
vt 0.000000 0.042315
vt 0.112718 0.041969
vt 0.568801 0.972928
vt 0.681519 0.973274
vt 0.682383 0.691478
vt 0.569665 0.691133
vt 0.455218 0.972928
vt 0.567936 0.973274
vt 0.568800 0.691479
vt 0.456082 0.691133
vt 0.683248 0.647200
vt 0.795966 0.647545
vt 0.795102 0.929341
vt 0.682383 0.928995
vt 0.796830 0.647200
vt 0.909549 0.647545
vt 0.908684 0.929341
vt 0.795966 0.928995
vt 0.454132 0.719418
vt 0.341413 0.719073
vt 0.342278 0.437277
vt 0.454996 0.437623
vt 0.000222 0.719073
vt 0.112940 0.719418
vt 0.113804 0.437623
vt 0.001086 0.437277
vt 0.228473 0.396378
vt 0.341192 0.396724
vt 0.340327 0.678520
vt 0.227609 0.678174
vt 0.113804 0.396724
vt 0.226523 0.396378
vt 0.227387 0.678174
vt 0.114669 0.678520
vt 0.216241 0.719142
vt 0.126066 0.719418
vt 0.328930 0.719418
vt 0.238755 0.719142
vt 0.102658 0.396655
vt 0.012484 0.396378
vt 0.353675 0.396378
vt 0.443850 0.396655
vt 0.999723 0.737651
vt 1.000000 0.647476
vt 0.909825 0.647200
vt 0.909549 0.737374
vt 0.456082 0.329802
vt 0.568800 0.330148
vt 0.567936 0.611943
vt 0.455218 0.611598
vt 0.569665 0.659604
vt 0.682383 0.659258
vt 0.681519 0.377462
vt 0.568801 0.377808
vt 0.567936 0.000000
vt 0.568801 0.281796
vt 0.456082 0.282142
vt 0.682383 0.329456
vt 0.569665 0.329802
vt 0.568801 0.048006
vt 0.681519 0.047660
vt 0.226523 1.001560
vt 0.113804 1.001214
vt 0.114669 0.719418
vt 0.227387 0.719764
vt 0.001086 0.719418
vt 0.113804 0.719764
vt 0.112940 1.001560
vt 0.000222 1.001214
vt 0.341413 1.001214
vt 0.454132 1.001560
vt 0.454996 0.719764
vt 0.342278 0.719418
vt 0.340105 0.719418
vt 0.340970 1.001214
vt 0.228252 1.001560
vt 0.909549 0.330148
vt 0.796830 0.329802
vt 0.795966 0.611598
vt 0.908684 0.611943
vt 0.795966 0.330148
vt 0.683248 0.329802
vt 0.682383 0.611598
vt 0.795102 0.611943
vt 0.795102 0.329802
vt 0.683248 0.047660
vt 0.795966 0.048006
vt 0.908684 0.329802
vt 0.795966 0.329456
vt 0.796830 0.047660
vt 0.909549 0.048006
vt 0.000000 0.000000
vt 0.011143 0.000277
vt 0.101318 0.000000
vt 0.240096 0.000000
vt 0.330270 0.000277
vt 0.352556 0.396102
vt 0.442731 0.396378
vt 0.215122 0.396378
vt 0.124947 0.396102
vt 1.000000 0.102579
vt 0.909825 0.102856
vt 0.909549 0.012681
vt 0.999723 0.012404
vt 0.897316 0.960870
vt 0.807141 0.960593
vt 0.783733 0.960870
vt 0.693558 0.960593
vt 0.557625 0.659881
vt 0.467451 0.659604
vt 0.671208 0.659881
vt 0.581034 0.659604
vt 0.909549 0.827825
vt 0.909825 0.737651
vt 1.000000 0.737927
vt 0.999723 0.828102
vt 0.808211 0.012404
vt 0.898385 0.012681
vt 0.694628 0.012404
vt 0.784802 0.012681
vt 0.693547 0.646923
vt 0.783722 0.647200
vt 0.807130 0.646923
vt 0.897304 0.647200
vt 0.909549 0.239627
vt 0.999723 0.239351
vt 1.000000 0.329525
vt 0.909825 0.329802
vt 0.579926 0.000277
vt 0.670101 0.000000
vt 0.557675 0.329525
vt 0.467500 0.329802
vt 0.670101 0.329802
vt 0.579926 0.330078
vt 0.556518 0.659604
vt 0.466343 0.659327
vt 1.000000 0.330079
vt 0.999723 0.420253
vt 0.909549 0.419977
vt 0.973725 0.126632
vt 0.973379 0.239351
vt 0.941637 0.227981
vt 0.941913 0.137807
vt 0.909549 0.940820
vt 0.909895 0.828102
vt 0.941637 0.839471
vt 0.941360 0.929646
vt 0.941291 0.239351
vt 0.941637 0.126632
vt 0.909825 0.137807
vt 0.909549 0.227981
vt 0.941291 0.420253
vt 0.941637 0.532972
vt 0.909825 0.521797
vt 0.909549 0.431622
vt 1.000000 0.557025
vt 0.909825 0.556748
vt 0.909549 0.646923
vt 0.999723 0.647200
vn 0.573866 -0.581609 0.576549
vn 0.190910 0.779622 0.596442
vn -0.190910 -0.779622 -0.596442
vn -0.573866 0.581609 -0.576549
vn 0.796386 0.232209 -0.558434
vn 0.190911 0.779622 0.596442
vn -0.796386 -0.232208 0.558434
vn -0.796386 -0.232209 0.558434
vn -0.500057 0.772165 -0.392051
vn -0.724109 -0.031498 0.688966
vn 0.818851 0.418395 -0.392973
vn 0.604177 -0.346967 0.717345
vn -0.796386 -0.232208 0.558433
vn 0.000000 0.000000 0.000000
vn -0.776825 0.491446 -0.393732
vn -0.404179 -0.813438 -0.418279
vn -0.037321 0.684707 0.727862
vn 0.323423 -0.623647 0.711661
vn -0.581645 -0.399614 0.708518
vn 0.007740 -0.927192 -0.374507
vn 0.368467 0.545908 0.752473
vn 0.934146 0.042357 -0.354369
vn -0.924295 -0.061809 0.376642
vn -0.352408 -0.572227 -0.740516
vn 0.012259 0.916966 0.398777
vn 0.606006 0.384392 -0.696419
vn -0.602730 0.380855 -0.701189
vn -0.818803 -0.394180 0.417353
vn 0.736825 0.059406 -0.673468
vn 0.512482 -0.749402 0.419236
vn 0.825172 -0.456551 0.332645
vn 0.105385 -0.645712 -0.756274
vn 0.462145 0.811191 0.358316
vn -0.243205 0.626240 -0.740726
usemtl Material
s off
f 5/1/1 6/2/1 10/3/1
f 5/1/1 10/3/1 9/4/1
f 6/5/2 2/6/2 11/7/2
f 6/5/2 11/7/2 10/8/2
f 1/9/3 5/10/3 9/11/3
f 1/9/3 9/11/3 12/12/3
f 2/13/4 1/14/4 12/15/4
f 2/13/4 12/15/4 11/16/4
f 8/17/5 7/18/5 13/19/5
f 8/17/5 13/19/5 14/20/5
f 7/21/6 6/22/6 15/23/6
f 7/21/6 15/23/6 13/24/6
f 5/25/3 8/26/3 14/27/3
f 5/25/3 14/27/3 16/28/3
f 6/29/7 5/30/7 16/31/7
f 6/29/7 16/31/7 15/32/7
f 6/33/1 7/34/1 18/35/1
f 6/33/1 18/35/1 17/36/1
f 7/37/5 3/38/5 19/39/5
f 7/37/5 19/39/5 18/40/5
f 2/41/8 6/42/8 17/43/8
f 2/41/8 17/43/8 20/44/8
f 3/45/4 2/46/4 20/47/4
f 3/45/4 20/47/4 19/48/4
f 19/48/9 20/47/9 22/49/9
f 19/48/9 22/49/9 21/50/9
f 20/44/10 17/43/10 23/51/10
f 20/44/10 23/51/10 22/52/10
f 18/40/11 19/39/11 21/53/11
f 18/40/11 21/53/11 24/54/11
f 17/36/12 18/35/12 24/55/12
f 17/36/12 24/55/12 23/56/12
f 22/57/2 23/58/2 24/59/2
f 22/57/2 24/59/2 21/60/2
f 8/61/1 5/62/1 25/63/1
f 8/61/1 25/63/1 26/64/1
f 4/65/5 8/66/5 26/67/5
f 4/65/5 26/67/5 27/68/5
f 5/5/13 1/69/13 28/70/13
f 5/5/13 28/70/13 25/71/13
f 1/72/4 4/73/4 27/74/4
f 1/72/4 27/74/4 28/75/4
f 7/76/1 8/77/1 30/78/1
f 7/76/1 30/78/1 29/79/1
f 8/80/3 4/81/3 31/82/3
f 8/80/3 31/82/3 30/83/3
f 3/84/2 7/85/2 29/86/2
f 3/84/2 29/86/2 32/87/2
f 4/79/4 3/88/4 32/89/4
f 4/79/4 32/89/4 31/90/4
f 3/91/5 4/92/5 34/93/5
f 3/91/5 34/93/5 33/94/5
f 2/95/2 3/96/2 33/97/2
f 2/95/2 33/97/2 35/98/2
f 4/99/3 1/72/3 36/100/3
f 4/99/3 36/100/3 34/101/3
f 1/102/8 2/103/8 35/104/8
f 1/102/8 35/104/8 36/105/8
f 31/106/14 32/106/14 38/106/14
f 31/106/14 38/106/14 37/106/14
f 32/106/14 29/106/14 39/106/14
f 32/106/14 39/106/14 38/106/14
f 30/106/14 31/106/14 37/106/14
f 30/106/14 37/106/14 40/106/14
f 29/106/14 30/106/14 40/106/14
f 29/106/14 40/106/14 39/106/14
f 11/16/15 12/15/15 42/107/15
f 11/16/15 42/107/15 41/108/15
f 12/12/16 9/11/16 43/109/16
f 12/12/16 43/109/16 42/110/16
f 10/8/17 11/7/17 41/111/17
f 10/8/17 41/111/17 44/112/17
f 9/4/18 10/3/18 44/113/18
f 9/4/18 44/113/18 43/114/18
f 42/115/7 43/116/7 44/117/7
f 42/115/7 44/117/7 41/118/7
f 15/32/19 16/31/19 46/119/19
f 15/32/19 46/119/19 45/120/19
f 16/28/20 14/27/20 47/121/20
f 16/28/20 47/121/20 46/122/20
f 13/24/21 15/23/21 45/123/21
f 13/24/21 45/123/21 48/124/21
f 14/20/22 13/19/22 48/125/22
f 14/20/22 48/125/22 47/126/22
f 46/127/1 47/128/1 48/129/1
f 46/127/1 48/129/1 45/130/1
f 36/105/23 35/104/23 49/131/23
f 36/105/23 49/131/23 50/132/23
f 34/101/24 36/100/24 50/133/24
f 34/101/24 50/133/24 51/134/24
f 35/98/25 33/97/25 52/135/25
f 35/98/25 52/135/25 49/136/25
f 33/94/26 34/93/26 51/137/26
f 33/94/26 51/137/26 52/138/26
f 50/139/4 49/140/4 52/141/4
f 50/139/4 52/141/4 51/142/4
f 28/75/27 27/74/27 53/143/27
f 28/75/27 53/143/27 54/144/27
f 25/71/28 28/70/28 54/145/28
f 25/71/28 54/145/28 55/146/28
f 27/68/29 26/67/29 56/147/29
f 27/68/29 56/147/29 53/148/29
f 26/64/30 25/63/30 55/149/30
f 26/64/30 55/149/30 56/150/30
f 55/142/3 54/151/3 53/152/3
f 55/142/3 53/152/3 56/153/3
f 39/154/31 40/155/31 58/156/31
f 39/154/31 58/156/31 57/157/31
f 40/158/32 37/159/32 59/160/32
f 40/158/32 59/160/32 58/161/32
f 38/162/33 39/163/33 57/164/33
f 38/162/33 57/164/33 60/165/33
f 37/166/34 38/167/34 60/168/34
f 37/166/34 60/168/34 59/169/34
f 60/170/5 57/171/5 58/172/5
f 60/170/5 58/172/5 59/173/5
