# Blender v2.59 (sub 2) OBJ File: 'stadium.blend'
# www.blender.org
mtllib stadium.mtl
o Cube
v 1.062917 0.919683 0.000847
v 1.062917 -1.250332 0.000847
v -0.943560 -1.250332 0.000847
v -0.943559 0.919683 0.000847
v 1.059679 0.852090 2.615860
v 1.059678 0.392285 2.615860
v -0.940322 0.392285 2.615860
v -0.940321 0.852091 2.615860
v 1.059679 0.852090 0.213216
v 1.059679 -1.147909 0.213216
v -0.940321 -1.147909 0.213216
v -0.940321 0.852091 0.213216
v 1.059679 0.852090 0.883184
v 1.059678 -0.848490 0.802742
v -0.940321 -0.848490 0.802742
v -0.940321 0.852091 0.883184
v 1.059679 0.852090 0.565379
v 1.059679 -1.096418 0.790936
v -0.940321 -1.096417 0.790937
v -0.940321 0.852091 0.565379
v 1.059679 0.852090 1.477022
v 1.062189 0.062207 1.106411
v -0.942832 0.062208 1.106411
v -0.940321 0.852091 1.477022
v 1.059679 0.852090 1.751001
v 1.062189 -0.748969 1.751809
v -0.942832 -0.748968 1.751810
v -0.940321 0.852091 1.751001
v 1.059679 0.852090 1.967216
v 1.059678 0.292359 1.967216
v -0.940321 0.292360 1.967216
v -0.940321 0.852091 1.967216
v -0.940321 -1.099281 0.851075
v 1.059679 -1.099281 0.851075
v -0.940321 -0.851353 0.862880
v 1.059678 -0.851354 0.862880
v 1.062189 -0.089850 1.506935
v -0.942832 -0.169241 1.573169
v -0.499122 -0.144408 1.559631
v 1.061641 -0.521964 1.798767
v -0.942265 -0.513920 1.800431
v -0.475357 -0.505876 1.802095
v -0.475357 -0.527682 1.909654
v -0.942265 -0.511593 1.907990
v 1.061641 -0.519638 1.906326
v -0.942832 -0.738598 1.896029
v 1.062189 -0.738598 1.896029
v 1.059678 0.472356 2.296618
v -0.940322 0.472357 2.296618
v 0.050537 0.467961 2.288573
v 0.051729 -0.340720 2.440399
v -0.939130 -0.336324 2.448444
v 1.060869 -0.336324 2.448444
v -0.939130 -0.365969 2.535896
v 1.060869 -0.365969 2.535896
v 0.059679 -1.250332 0.000847
v 1.061298 -1.181705 0.107031
v -0.941941 -1.181705 0.107031
v 0.059679 -1.147909 0.213216
v 1.059679 -1.122164 0.502076
v -0.940321 -1.122163 0.502076
v 0.059679 -1.096418 0.703960
v 0.059679 -1.122163 0.502076
v 0.058059 -1.181705 0.107031
vt 0.243906 0.757551
vt 0.244481 0.784684
vt 0.037805 0.784684
vt 0.037230 0.757551
vt 0.243906 0.690521
vt 0.037231 0.690521
vt 0.599114 0.917378
vt 0.534127 0.955201
vt 0.480770 0.863523
vt 0.559882 0.817481
vt 0.462984 0.832964
vt 0.404743 0.448188
vt 0.404743 0.474678
vt 0.385965 0.474678
vt 0.404743 0.439358
vt 0.381884 0.448188
vt 0.244481 0.812997
vt 0.037804 0.812997
vt 0.506495 0.672015
vt 0.436866 0.796558
vt 0.408878 0.419470
vt 0.357135 0.380644
vt 0.244481 0.874363
vt 0.037804 0.874363
vt 0.598556 0.544846
vt 0.380257 0.717651
vt 0.969302 0.228480
vt 0.969245 0.347126
vt 0.722125 0.227714
vt 0.721447 0.346357
vt 0.417842 0.376363
vt 0.295612 0.344853
vt 0.244480 0.907205
vt 0.244480 0.943597
vt 0.037804 0.943596
vt 0.037804 0.907204
vt 0.612049 0.490464
vt 0.349961 0.675422
vt 0.555335 0.414434
vt 0.311563 0.632498
vt 0.422639 0.353293
vt 0.066064 0.191762
vt 0.458809 0.293035
vt 0.116589 0.087620
vt 0.245320 0.970784
vt 0.037974 0.970783
vt 0.533152 0.374750
vt 0.271250 0.608680
vt 0.499832 0.253964
vt 0.131450 0.032250
vt 0.974177 0.979053
vt 0.729793 0.983913
vt 0.973059 0.922869
vt 0.728675 0.927729
vt 0.230468 0.645330
vt 0.048619 0.474443
vt 0.230468 0.474443
vt 0.625240 0.493737
vt 0.611747 0.548119
vt 0.258478 0.400532
vt 0.028930 0.247442
vt 0.723876 0.195484
vt 0.971054 0.196250
vt 0.971285 0.163733
vt 0.724107 0.162967
vt 0.581744 0.711973
vt 0.675806 0.680448
vt 0.776093 0.408086
vt 0.969116 0.400073
vt 0.721059 0.486350
vt 0.968857 0.486973
vt 0.720162 0.485712
vt 0.721209 0.410746
vt 0.288509 0.415249
vt 0.340051 0.407423
vt 0.660122 0.727583
vt 0.968166 0.568487
vt 0.969073 0.667408
vt 0.786528 0.564376
vt 0.723102 0.671825
vt 0.720150 0.564829
vt 0.348629 0.441308
vt 0.719742 0.549731
vt 0.785851 0.546217
vt 0.967603 0.545169
vt 0.700555 0.697270
vt 0.679141 0.739161
vt 0.343083 0.471207
vt 0.283080 0.455758
vt 0.967778 0.519409
vt 0.719980 0.518786
vt 0.561537 0.878844
vt 0.969962 0.713287
vt 0.845971 0.714774
vt 0.723859 0.717831
vt 0.389235 0.461640
vt 0.848280 0.816074
vt 0.726424 0.818704
vt 0.971284 0.813693
vt 0.688322 0.833782
vt 0.700555 0.844667
vt 0.354966 0.471726
vt 0.356209 0.467841
vt 0.726968 0.834559
vt 0.971352 0.829700
vt 0.583692 0.452449
vt 0.091327 0.139691
vt 0.544244 0.394592
vt 0.124020 0.059935
vt 0.048619 0.559887
vt 0.048619 0.645330
vt 0.849559 0.095278
vt 0.973259 0.059820
vt 0.973148 0.095662
vt 0.849448 0.131120
vt 0.725859 0.130737
vt 0.973037 0.131503
vt 0.849670 0.059437
vt 0.725970 0.094895
vt 0.726081 0.059054
vt 0.850121 0.026900
vt 0.974177 0.027284
vt 0.973718 0.043552
vt 0.849662 0.043168
vt 0.726065 0.026515
vt 0.726073 0.042784
vn 0.000000 1.000000 0.000000
vn -1.000000 0.000001 0.000000
vn 1.000000 -0.000002 -0.000000
vn 1.000000 -0.000001 -0.000000
vn -0.999995 0.003178 0.000000
vn 0.999995 0.003177 0.000000
vn -0.999953 0.000456 -0.009633
vn -0.000000 -0.316325 0.948651
vn 0.999995 0.003177 -0.000001
vn 0.999953 0.000455 -0.009631
vn -1.000000 0.000000 -0.000001
vn -1.000000 0.000000 0.000000
vn 1.000000 -0.000000 -0.000000
vn 1.000000 0.000000 0.000004
vn 0.000000 0.952900 0.303286
vn -0.999884 0.000000 0.015248
vn 0.999884 0.000000 0.015248
vn -0.000000 -0.000000 1.000000
vn 0.000000 -0.000000 -1.000000
vn 0.000000 0.998868 0.047562
vn 0.000000 -0.047561 0.998868
vn -0.999997 0.002263 0.001122
vn -0.999986 0.001571 0.005097
vn 0.020685 -0.934693 -0.354853
vn -0.009022 -0.324017 -0.946008
vn -0.012676 -0.294458 -0.955580
vn 0.006877 -0.907327 -0.420369
vn 0.999990 0.001570 0.004225
vn 0.999997 0.002426 0.000921
vn -0.999991 0.001570 0.004063
vn -0.999990 0.001570 0.004063
vn 0.000000 -0.202569 0.979268
vn 0.999991 0.001569 0.004066
vn 0.999990 0.001569 0.004065
vn 0.008259 0.995891 0.090178
vn 0.002801 0.995921 0.090181
vn -0.999997 0.002469 -0.000125
vn 0.999997 0.002470 -0.000125
vn -0.000000 -0.997424 0.071726
vn 0.001067 -0.056715 0.998390
vn -0.005371 -0.052601 0.998601
vn -1.000000 0.000001 -0.000001
vn -1.000000 0.000002 0.000000
vn -0.000000 -0.877533 0.479516
vn 1.000000 -0.000003 -0.000001
vn 1.000000 -0.000001 0.000001
vn -0.008798 -0.184527 -0.982788
vn 0.008638 -0.184503 -0.982794
vn -0.999999 -0.001540 -0.000415
vn 0.999999 0.001539 0.000415
vn -0.000000 -0.104876 0.994485
vn 0.006684 -0.947044 -0.321035
vn -0.002156 -0.961022 -0.276464
vn 0.999884 0.000000 0.015247
vn 0.002228 -0.994354 0.105960
vn 0.730338 -0.668325 0.141026
vn 0.705893 -0.705344 0.064577
vn 0.002533 -0.998444 0.055422
vn -0.723289 -0.690390 0.013276
vn 0.722251 -0.691488 0.011658
vn 0.000000 -0.980346 0.197211
vn -0.707083 -0.704306 0.062746
vn -0.730338 -0.668325 0.141026
vn 0.000000 -0.878292 -0.478103
vn 0.556444 -0.730308 -0.396222
vn 0.735862 -0.607593 0.298837
vn 0.000000 -0.904324 0.426771
vn -0.556444 -0.730308 -0.396222
vn -0.735862 -0.607593 0.298837
vn 0.578265 -0.602924 0.549577
vn -0.578265 -0.602924 0.549577
usemtl Material_untitled
s off
f 29/1/1 25/2/1 28/3/1
f 29/1/1 28/3/1 32/4/1
f 5/5/1 29/1/1 32/4/1
f 5/5/1 32/4/1 8/6/1
f 7/7/2 8/8/2 32/9/2
f 31/10/2 32/9/2 28/11/2
f 29/12/3 5/13/3 6/14/3
f 25/15/4 29/12/4 30/16/4
f 25/2/1 21/17/1 28/3/1
f 21/17/1 24/18/1 28/3/1
f 23/19/5 28/11/5 24/20/5
f 21/21/6 25/15/6 22/22/6
f 21/17/1 13/23/1 16/24/1
f 21/17/1 16/24/1 24/18/1
f 15/25/7 23/19/7 16/26/7
f 23/19/5 24/20/5 16/26/5
f 14/27/8 22/28/8 15/29/8
f 22/28/8 23/30/8 15/29/8
f 13/31/9 21/21/9 22/22/9
f 13/31/10 22/22/10 14/32/10
f 17/33/1 9/34/1 12/35/1
f 17/33/1 12/35/1 20/36/1
f 13/23/1 17/33/1 20/36/1
f 13/23/1 20/36/1 16/24/1
f 19/37/11 15/25/11 20/38/11
f 15/25/12 16/26/12 20/38/12
f 11/39/11 20/38/11 12/40/11
f 17/41/13 13/31/13 14/32/13
f 17/41/14 14/32/14 18/42/14
f 9/43/13 17/41/13 10/44/13
f 9/34/15 1/45/15 4/46/15
f 9/34/15 4/46/15 12/35/15
f 3/47/16 12/40/16 4/48/16
f 1/49/17 9/43/17 2/50/17
f 5/51/18 8/52/18 6/53/18
f 8/52/18 7/54/18 6/53/18
f 1/55/19 3/56/19 4/57/19
f 15/25/12 19/37/12 33/58/12
f 15/25/12 33/58/12 35/59/12
f 18/42/13 14/32/13 36/60/13
f 18/42/13 36/60/13 34/61/13
f 14/27/20 15/29/20 35/62/20
f 14/27/20 35/62/20 36/63/20
f 34/64/21 36/63/21 33/65/21
f 36/63/21 35/62/21 33/65/21
f 23/19/22 38/66/22 28/11/22
f 38/66/23 27/67/23 28/11/23
f 39/68/24 22/28/24 37/69/24
f 27/70/25 39/68/25 37/69/25
f 27/70/25 37/69/25 26/71/25
f 39/68/26 27/72/26 38/73/26
f 22/28/27 39/68/27 38/73/27
f 22/28/27 38/73/27 23/30/27
f 26/74/28 37/75/28 25/15/28
f 37/75/29 22/22/29 25/15/29
f 27/67/30 41/76/30 28/11/30
f 41/76/31 31/10/31 28/11/31
f 40/77/32 30/78/32 42/79/32
f 31/80/32 41/81/32 42/79/32
f 31/80/32 42/79/32 30/78/32
f 30/16/33 40/82/33 25/15/33
f 40/82/34 26/74/34 25/15/34
f 42/79/35 41/81/35 44/83/35
f 42/79/35 44/83/35 43/84/35
f 40/77/36 42/79/36 43/84/36
f 40/77/36 43/84/36 45/85/36
f 41/76/37 27/67/37 46/86/37
f 41/76/37 46/86/37 44/87/37
f 26/74/38 40/82/38 45/88/38
f 26/74/38 45/88/38 47/89/38
f 27/70/39 26/71/39 47/90/39
f 27/70/39 47/90/39 46/91/39
f 47/90/40 45/85/40 43/84/40
f 47/90/40 43/84/40 46/91/40
f 44/83/41 46/91/41 43/84/41
f 31/10/42 49/92/42 32/9/42
f 49/92/43 7/7/43 32/9/43
f 30/78/44 48/93/44 50/94/44
f 30/78/44 50/94/44 31/80/44
f 49/95/44 31/80/44 50/94/44
f 6/14/45 48/96/45 29/12/45
f 48/96/46 30/16/46 29/12/46
f 49/95/47 50/94/47 51/97/47
f 49/95/47 51/97/47 52/98/47
f 50/94/48 48/93/48 53/99/48
f 50/94/48 53/99/48 51/97/48
f 7/7/49 49/92/49 52/100/49
f 7/7/49 52/100/49 54/101/49
f 48/96/50 6/14/50 55/102/50
f 48/96/50 55/102/50 53/103/50
f 6/53/51 7/54/51 54/104/51
f 6/53/51 54/104/51 55/105/51
f 53/99/52 55/105/52 51/97/52
f 54/104/53 52/98/53 51/97/53
f 54/104/53 51/97/53 55/105/53
f 11/39/12 61/106/12 20/38/12
f 61/106/12 19/37/12 20/38/12
f 18/42/13 60/107/13 17/41/13
f 60/107/13 10/44/13 17/41/13
f 3/47/16 58/108/16 12/40/16
f 58/108/16 11/39/16 12/40/16
f 10/44/17 57/109/17 9/43/17
f 57/109/54 2/50/54 9/43/54
f 56/110/19 1/55/19 2/111/19
f 3/56/19 1/55/19 56/110/19
s 1
f 63/112/55 10/113/56 60/114/57
f 60/114/57 62/115/58 63/112/55
f 19/116/59 63/112/55 62/115/58
f 62/115/58 60/114/57 18/117/60
f 59/118/61 10/113/56 63/112/55
f 63/112/55 61/119/62 59/118/61
f 11/120/63 59/118/61 61/119/62
f 61/119/62 63/112/55 19/116/59
f 56/121/64 2/122/65 57/123/66
f 57/123/66 64/124/67 56/121/64
f 3/125/68 56/121/64 64/124/67
f 64/124/67 57/123/66 10/113/56
f 64/124/67 10/113/56 59/118/61
f 59/118/61 58/126/69 64/124/67
f 3/125/68 64/124/67 58/126/69
f 58/126/69 59/118/61 11/120/63
f 62/115/58 34/64/70 33/65/71
f 19/116/59 62/115/58 33/65/71
f 62/115/58 18/117/60 34/64/70
